<svg id="Layer_1" data-name="Layer 1" xmlns="http://www.w3.org/2000/svg" width="187.76" height="39.89" viewBox="0 0 187.76 39.89"><title>lofo-pwc-wordmark</title><path d="M15.19,24.13a4.87,4.87,0,0,0,2.61.74c1.12,0,2.15-.6,2.15-1.72,0-.76-.5-1.27-1.63-1.87C17,20.56,16,19.63,16,18.26c0-2.22,1.92-3.61,4.26-3.61a5.15,5.15,0,0,1,2.58.58l-.65,1.67a4.35,4.35,0,0,0-2.1-.52c-1.27,0-2,.74-2,1.51s.65,1.26,1.74,1.87c1.41.74,2.25,1.67,2.25,3.08,0,2.32-1.87,3.74-4.47,3.74a5.33,5.33,0,0,1-3.07-.81Z" fill="#56c4cf"/><path d="M28.51,26.42c0-.5.09-1.17.15-1.89h0a3.35,3.35,0,0,1-3,2.08c-1.49,0-2.47-1.17-2.47-2.85a5.73,5.73,0,0,1,5.57-5.89H29a8.88,8.88,0,0,1,2.53.38l-.86,4.36a19.43,19.43,0,0,0-.34,3.81Zm.83-6.92a3.34,3.34,0,0,0-.83-.09c-1.86,0-3.28,2.08-3.28,4,0,.88.33,1.6,1.2,1.6s2.06-1.17,2.46-3.3Z" fill="#56c4cf"/><path d="M32.31,26.42,33.6,19.6H32.51l.29-1.55h1.08l.09-.43a4.79,4.79,0,0,1,1.39-2.82,3.37,3.37,0,0,1,2.2-.77,2.81,2.81,0,0,1,1.24.22l-.38,1.58a2.11,2.11,0,0,0-.81-.14c-1,0-1.48.88-1.67,2l-.07.4h1.74l-.29,1.55H35.59L34.3,26.42Z" fill="#56c4cf"/><path d="M43.58,25.94a6.73,6.73,0,0,1-3,.65,3.14,3.14,0,0,1-3.44-3.45c0-2.53,1.86-5.27,4.74-5.27a2.4,2.4,0,0,1,2.7,2.35c0,2.15-2.25,2.83-5.48,2.77a2.32,2.32,0,0,0,.22,1.18A1.85,1.85,0,0,0,41,25a4.94,4.94,0,0,0,2.3-.55Zm-1.91-6.58a2.58,2.58,0,0,0-2.32,2.13c2.06,0,3.39-.26,3.39-1.25C42.74,19.69,42.31,19.36,41.67,19.36Z" fill="#56c4cf"/><path d="M49.49,26.42,49,14.84h2l.12,6c0,1.44,0,2.51,0,3.42h0c.36-1,.7-2,1.29-3.37l2.59-6h2.18l.09,5.84c0,1.44,0,2.53,0,3.49h0c.38-1.1.76-2.2,1.22-3.37l2.49-6H63L57.84,26.42H55.68l-.17-5.58c0-1.34,0-2.28.07-3.61h0c-.39,1.19-.75,2.27-1.29,3.52L51.7,26.42Z" fill="#56c4cf"/><path d="M66.66,26.42c0-.5.09-1.17.15-1.89h-.05a3.35,3.35,0,0,1-3,2.08c-1.49,0-2.47-1.17-2.47-2.85a5.73,5.73,0,0,1,5.57-5.89h.32a8.88,8.88,0,0,1,2.53.38l-.86,4.36a19.43,19.43,0,0,0-.34,3.81Zm.83-6.92a3.34,3.34,0,0,0-.83-.09c-1.86,0-3.28,2.08-3.28,4,0,.88.33,1.6,1.2,1.6s2.06-1.17,2.46-3.3Z" fill="#56c4cf"/><path d="M74.38,15.75,73.95,18h1.89l-.31,1.55H73.65L73,23a7.49,7.49,0,0,0-.14,1.18.65.65,0,0,0,.55.74h.19a4.34,4.34,0,0,0,.69,0l-.19,1.56a4.55,4.55,0,0,1-1.3.17c-1.38,0-2-.76-2-1.72a6.9,6.9,0,0,1,.2-1.6l.72-3.73H70.56l.29-1.55H72l.34-1.8Z" fill="#56c4cf"/><path d="M82,25.94a6.73,6.73,0,0,1-3,.65,3.14,3.14,0,0,1-3.44-3.45c0-2.53,1.86-5.27,4.74-5.27A2.4,2.4,0,0,1,83,20.22C83,22.37,80.75,23,77.52,23a2.32,2.32,0,0,0,.22,1.18,1.85,1.85,0,0,0,1.72.86,4.94,4.94,0,0,0,2.3-.55Zm-2-6.58a2.58,2.58,0,0,0-2.32,2.13c2.06,0,3.39-.26,3.39-1.25C81.11,19.69,80.68,19.36,80,19.36Z" fill="#56c4cf"/><path d="M83.28,26.42l1-5.15c.22-1.18.33-2.46.43-3.21h1.74c-.05.57-.1,1.15-.19,1.77h.05a3.08,3.08,0,0,1,2.63-2h.43l-.4,2a2.35,2.35,0,0,0-.38,0c-1.43,0-2.34,1.44-2.66,3.23l-.64,3.37Z" fill="#56c4cf"/><path d="M89.1,24.55a4.56,4.56,0,0,0,2,.57c.81,0,1.29-.48,1.29-1s-.27-.86-1.1-1.29a2.57,2.57,0,0,1-1.65-2.18c0-1.62,1.41-2.75,3.39-2.75a4.17,4.17,0,0,1,2,.43l-.52,1.44A3.35,3.35,0,0,0,93,19.39c-.76,0-1.27.41-1.27,1s.38.79,1.08,1.15a2.72,2.72,0,0,1,1.74,2.25c0,1.84-1.55,2.85-3.56,2.85A4.32,4.32,0,0,1,88.6,26Z" fill="#56c4cf"/><path d="M94,28.5A29.83,29.83,0,0,0,95.81,24l2.25-.17a26.73,26.73,0,0,1-2.59,4.57Z" fill="#56c4cf"/><path d="M102.18,24.13a4.87,4.87,0,0,0,2.61.74c1.12,0,2.15-.6,2.15-1.72,0-.76-.5-1.27-1.63-1.87-1.34-.72-2.35-1.65-2.35-3,0-2.22,1.92-3.61,4.26-3.61a5.15,5.15,0,0,1,2.58.58l-.65,1.67a4.35,4.35,0,0,0-2.1-.52c-1.27,0-2,.74-2,1.51s.65,1.26,1.74,1.87c1.41.74,2.25,1.67,2.25,3.08,0,2.32-1.87,3.74-4.47,3.74a5.33,5.33,0,0,1-3.07-.81Z" fill="#56c4cf"/><path d="M115.5,26.42c0-.5.09-1.17.15-1.89h-.05a3.35,3.35,0,0,1-3,2.08c-1.49,0-2.47-1.17-2.47-2.85a5.73,5.73,0,0,1,5.57-5.89h.3a8.88,8.88,0,0,1,2.53.38l-.86,4.36a19.43,19.43,0,0,0-.34,3.81Zm.83-6.92a3.34,3.34,0,0,0-.83-.09c-1.86,0-3.28,2.08-3.28,4,0,.88.33,1.6,1.2,1.6s2.06-1.17,2.46-3.3Z" fill="#56c4cf"/><path d="M119.3,26.42l1.29-6.82H119.5l.29-1.55h1.08l.09-.43a4.79,4.79,0,0,1,1.39-2.82,3.37,3.37,0,0,1,2.2-.77,2.81,2.81,0,0,1,1.24.22l-.38,1.58a2.11,2.11,0,0,0-.81-.14c-.95,0-1.48.88-1.67,2l-.07.4h1.74l-.29,1.55h-1.73l-1.29,6.82Z" fill="#56c4cf"/><path d="M130.57,25.94a6.73,6.73,0,0,1-3,.65,3.14,3.14,0,0,1-3.44-3.45c0-2.53,1.86-5.27,4.74-5.27a2.4,2.4,0,0,1,2.7,2.35c0,2.15-2.25,2.83-5.48,2.77a2.3,2.3,0,0,0,.22,1.18A1.85,1.85,0,0,0,128,25a4.94,4.94,0,0,0,2.3-.55Zm-1.91-6.58a2.58,2.58,0,0,0-2.32,2.13c2.06,0,3.39-.26,3.39-1.25C129.73,19.69,129.3,19.36,128.66,19.36Z" fill="#56c4cf"/><path d="M136.48,26.42,136,14.84h2l.12,6c0,1.44,0,2.51-.05,3.42h0c.36-1,.7-2,1.29-3.37l2.59-6h2.18l.09,5.84c0,1.44,0,2.53-.05,3.49h0c.38-1.1.76-2.2,1.22-3.37l2.49-6H150l-5.22,11.58h-2.16l-.17-5.58c0-1.34,0-2.28.07-3.61h-.05c-.39,1.19-.75,2.27-1.29,3.52l-2.54,5.67Z" fill="#56c4cf"/><path d="M149,26.42l2.3-12.2h2l-1,5.08h0a3.52,3.52,0,0,1,2.8-1.44,2,2,0,0,1,2.1,2.25,9,9,0,0,1-.14,1.48l-.93,4.83h-2l.89-4.69a6.82,6.82,0,0,0,.1-1.1c0-.64-.29-1.13-1-1.13-1,0-2.08,1.17-2.41,2.94l-.76,4Z" fill="#56c4cf"/><path d="M163.58,26.42c0-.5.09-1.17.15-1.89h-.05a3.35,3.35,0,0,1-3,2.08c-1.49,0-2.47-1.17-2.47-2.85a5.73,5.73,0,0,1,5.57-5.89h.32a8.88,8.88,0,0,1,2.53.38l-.86,4.36a19.43,19.43,0,0,0-.34,3.81Zm.83-6.92a3.34,3.34,0,0,0-.83-.09c-1.86,0-3.28,2.08-3.28,4,0,.88.33,1.6,1.2,1.6s2.06-1.17,2.46-3.3Z" fill="#56c4cf"/><path d="M167,26.42l2.34-12.2h2L169,26.42Z" fill="#56c4cf"/><path d="M177.52,25.94a6.73,6.73,0,0,1-3,.65,3.14,3.14,0,0,1-3.44-3.45c0-2.53,1.86-5.27,4.74-5.27a2.4,2.4,0,0,1,2.7,2.35c0,2.15-2.25,2.83-5.48,2.77a2.32,2.32,0,0,0,.22,1.18A1.85,1.85,0,0,0,175,25a4.94,4.94,0,0,0,2.3-.55Zm-1.91-6.58a2.58,2.58,0,0,0-2.32,2.13c2.06,0,3.39-.26,3.39-1.25C176.67,19.69,176.24,19.36,175.61,19.36Z" fill="#56c4cf"/><path d="M179,24.55a4.56,4.56,0,0,0,2,.57c.81,0,1.29-.48,1.29-1s-.27-.86-1.1-1.29a2.57,2.57,0,0,1-1.65-2.18c0-1.62,1.41-2.75,3.39-2.75a4.17,4.17,0,0,1,2,.43l-.52,1.44a3.35,3.35,0,0,0-1.56-.38c-.76,0-1.27.41-1.27,1s.38.79,1.08,1.15a2.72,2.72,0,0,1,1.74,2.25c0,1.84-1.55,2.85-3.56,2.85a4.32,4.32,0,0,1-2.34-.6Z" fill="#56c4cf"/><path d="M185.13,25.36a1.42,1.42,0,0,1,1.36-1.48h.05A1.19,1.19,0,0,1,187.76,25s0,.08,0,.11a1.4,1.4,0,0,1-1.36,1.44h-.07a1.17,1.17,0,0,1-1.2-1.14S185.13,25.39,185.13,25.36Z" fill="#56c4cf"/><rect width="1.02" height="39.89" fill="#fff"/></svg>